<svg width="12" height="23" viewBox="0 0 12 23" fill="none" xmlns="http://www.w3.org/2000/svg">
<path d="M0.369894 12.2143H2.88377V22.5635C2.88377 22.7679 3.04933 22.9334 3.25366 22.9334H7.51602C7.72035 22.9334 7.88592 22.7679 7.88592 22.5635V12.2631H10.7758C10.9637 12.2631 11.1218 12.1221 11.1433 11.9354L11.5822 8.12539C11.5943 8.02056 11.561 7.91558 11.4909 7.83694C11.4207 7.75823 11.3202 7.71318 11.2148 7.71318H7.88607V5.32485C7.88607 4.60488 8.27372 4.2398 9.03836 4.2398C9.14733 4.2398 11.2148 4.2398 11.2148 4.2398C11.4191 4.2398 11.5847 4.07416 11.5847 3.86991V0.372631C11.5847 0.168302 11.4191 0.00273722 11.2148 0.00273722H8.21535C8.19419 0.00170151 8.14721 0 8.07797 0C7.55753 0 5.74852 0.102165 4.31955 1.41677C2.73625 2.87356 2.95634 4.61783 3.00894 4.92026V7.7131H0.369894C0.165565 7.7131 0 7.87867 0 8.083V11.8444C0 12.0487 0.165565 12.2143 0.369894 12.2143Z" fill="#454545"/>
</svg>
