<svg width="25" height="19" viewBox="0 0 25 19" fill="none" xmlns="http://www.w3.org/2000/svg">
<path d="M24.3744 2.24931C23.5047 2.63077 22.5781 2.88362 21.6121 3.00638C22.6059 2.413 23.3644 1.48054 23.7211 0.356615C22.7944 0.909077 21.7714 1.29931 20.6811 1.51708C19.8012 0.580231 18.5472 0 17.1792 0C14.5251 0 12.3883 2.15431 12.3883 4.79531C12.3883 5.17531 12.4204 5.54069 12.4994 5.88854C8.51375 5.69415 4.98705 3.78392 2.6179 0.874C2.20428 1.59162 1.96167 2.413 1.96167 3.29723C1.96167 4.95754 2.81667 6.42931 4.09113 7.28138C3.3209 7.26677 2.56528 7.04315 1.92513 6.69092C1.92513 6.70554 1.92513 6.72454 1.92513 6.74354C1.92513 9.07323 3.5869 11.0083 5.76605 11.4541C5.37582 11.5608 4.95052 11.6119 4.50913 11.6119C4.20221 11.6119 3.89236 11.5944 3.60152 11.5301C4.22267 13.4286 5.98528 14.8244 8.08113 14.8697C6.45005 16.1456 4.37905 16.9144 2.13705 16.9144C1.7439 16.9144 1.36682 16.8968 0.989746 16.8486C3.11336 18.2181 5.63013 19 8.34421 19C17.1661 19 21.9891 11.6923 21.9891 5.358C21.9891 5.14608 21.9818 4.94146 21.9716 4.73831C22.9231 4.06308 23.7225 3.21977 24.3744 2.24931Z" fill="#454545"/>
</svg>
